<?xml version="1.0" encoding="UTF-8"?>
<!DOCTYPE svg PUBLIC "-//W3C//DTD SVG 1.1//EN"
    "http://www.w3.org/Graphics/SVG/1.1/DTD/svg11.dtd"><svg xmlns="http://www.w3.org/2000/svg" viewBox="0.0 0.0 400.0 300.0" height="300.0000" font-size="1" stroke-opacity="1" width="400.0000" xmlns:xlink="http://www.w3.org/1999/xlink" stroke="rgb(0,0,0)" version="1.1"><defs></defs><g stroke-linecap="butt" fill="rgb(0,0,0)" stroke-miterlimit="10.0" stroke-width="1.3856406460551018" fill-opacity="0.0" stroke-opacity="1.0" stroke-linejoin="miter" stroke="rgb(0,0,0)"><path d="M 400.0000,100.0000 l -0.0000,-100.0000 h -100.0000 l -0.0000,100.0000 Z"/></g><g stroke-linecap="butt" fill="rgb(0,0,0)" stroke-miterlimit="10.0" stroke-width="1.3856406460551018" fill-opacity="0.0" stroke-opacity="1.0" stroke-linejoin="miter" stroke="rgb(0,0,0)"><path d="M 300.0000,100.0000 l -0.0000,-100.0000 h -100.0000 l -0.0000,100.0000 Z"/></g><g stroke-linecap="butt" fill="rgb(0,0,0)" stroke-miterlimit="10.0" stroke-width="1.3856406460551018" fill-opacity="0.0" stroke-opacity="1.0" stroke-linejoin="miter" stroke="rgb(0,0,0)"><path d="M 200.0000,300.0000 l -0.0000,-100.0000 h -100.0000 l -0.0000,100.0000 Z"/></g><g stroke-linecap="butt" fill="rgb(0,0,0)" stroke-miterlimit="10.0" stroke-width="1.3856406460551018" fill-opacity="0.0" stroke-opacity="1.0" stroke-linejoin="miter" stroke="rgb(0,0,0)"><path d="M 200.0000,200.0000 l -0.0000,-100.0000 h -100.0000 l -0.0000,100.0000 Z"/></g><g stroke-linecap="butt" fill="rgb(0,0,0)" stroke-miterlimit="10.0" stroke-width="1.3856406460551018" fill-opacity="0.0" stroke-opacity="1.0" stroke-linejoin="miter" stroke="rgb(0,0,0)"><path d="M 200.0000,100.0000 l -0.0000,-100.0000 h -100.0000 l -0.0000,100.0000 Z"/></g><g stroke-linecap="butt" fill="rgb(255,0,0)" stroke-miterlimit="10.0" stroke-width="0.0" fill-opacity="1.0" stroke-opacity="1.0" stroke-linejoin="miter" stroke="rgb(0,0,0)"><path d="M 156.0000,50.0000 c 0.0000,-3.3137 -2.6863,-6.0000 -6.0000 -6.0000c -3.3137,-0.0000 -6.0000,2.6863 -6.0000 6.0000c -0.0000,3.3137 2.6863,6.0000 6.0000 6.0000c 3.3137,0.0000 6.0000,-2.6863 6.0000 -6.0000Z"/></g><g stroke-linecap="butt" fill="rgb(0,0,0)" stroke-miterlimit="10.0" stroke-width="1.3856406460551018" fill-opacity="0.0" stroke-opacity="1.0" stroke-linejoin="miter" stroke="rgb(0,0,0)"><path d="M 100.0000,100.0000 l -0.0000,-100.0000 h -100.0000 l -0.0000,100.0000 Z"/></g><g stroke-linecap="butt" fill="rgb(255,0,0)" stroke-miterlimit="10.0" stroke-width="0.0" fill-opacity="1.0" stroke-opacity="1.0" stroke-linejoin="miter" stroke="rgb(0,0,0)"><path d="M 58.0000,50.0000 c 0.0000,-4.4183 -3.5817,-8.0000 -8.0000 -8.0000c -4.4183,-0.0000 -8.0000,3.5817 -8.0000 8.0000c -0.0000,4.4183 3.5817,8.0000 8.0000 8.0000c 4.4183,0.0000 8.0000,-3.5817 8.0000 -8.0000Z"/></g></svg>