<?xml version="1.0" encoding="UTF-8"?>
<!DOCTYPE svg PUBLIC "-//W3C//DTD SVG 1.1//EN"
    "http://www.w3.org/Graphics/SVG/1.1/DTD/svg11.dtd"><svg xmlns="http://www.w3.org/2000/svg" viewBox="0.0 0.0 400.0 420.58488969530686" height="420.5849" font-size="1" stroke-opacity="1" width="400.0000" xmlns:xlink="http://www.w3.org/1999/xlink" stroke="rgb(0,0,0)" version="1.1"><defs></defs><g stroke-linecap="butt" fill="rgb(0,0,0)" stroke-miterlimit="10.0" stroke-width="1.6406533131804426" fill-opacity="0.0" stroke-opacity="1.0" stroke-linejoin="miter" stroke="rgb(0,0,0)"><path d="M 305.5728,340.2603 l -58.3592,-80.3246 l -94.4272,30.6813 l -0.0000,99.2866 l 94.4272,30.6813 Z"/></g><g stroke-linecap="butt" fill="rgb(0,0,0)" stroke-miterlimit="10.0" stroke-width="1.6406533131804426" fill-opacity="0.0" stroke-opacity="1.0" stroke-linejoin="miter" stroke="rgb(0,0,0)"><path d="M 152.7864,290.6170 l -58.3592,-80.3246 l -94.4272,30.6813 l -0.0000,99.2866 l 94.4272,30.6813 Z"/></g><g stroke-linecap="butt" fill="rgb(0,0,0)" stroke-miterlimit="10.0" stroke-width="1.6406533131804426" fill-opacity="0.0" stroke-opacity="1.0" stroke-linejoin="miter" stroke="rgb(0,0,0)"><path d="M 152.7864,129.9679 l -58.3592,-80.3246 l -94.4272,30.6813 l -0.0000,99.2866 l 94.4272,30.6813 Z"/></g><g stroke-linecap="butt" fill="rgb(0,0,0)" stroke-miterlimit="10.0" stroke-width="1.6406533131804426" fill-opacity="0.0" stroke-opacity="1.0" stroke-linejoin="miter" stroke="rgb(0,0,0)"><path d="M 305.5728,80.3246 l -58.3592,-80.3246 l -94.4272,30.6813 l -0.0000,99.2866 l 94.4272,30.6813 Z"/></g><g stroke-linecap="butt" fill="rgb(0,0,0)" stroke-miterlimit="10.0" stroke-width="1.6406533131804426" fill-opacity="0.0" stroke-opacity="1.0" stroke-linejoin="miter" stroke="rgb(0,0,0)"><path d="M 400.0000,210.2924 l -58.3592,-80.3246 l -94.4272,30.6813 l -0.0000,99.2866 l 94.4272,30.6813 Z"/></g><g stroke-linecap="butt" fill="rgb(0,0,0)" stroke-miterlimit="10.0" stroke-width="1.6406533131804426" fill-opacity="0.0" stroke-opacity="1.0" stroke-linejoin="miter" stroke="rgb(0,0,0)"><path d="M 247.2136,160.6491 l -94.4272,-30.6813 l -58.3592,80.3246 l 58.3592,80.3246 l 94.4272,-30.6813 Z"/></g><g stroke-linecap="butt" fill="rgb(255,0,0)" stroke-miterlimit="10.0" stroke-width="0.0" fill-opacity="1.0" stroke-opacity="1.0" stroke-linejoin="miter" stroke="rgb(0,0,0)"><path d="M 187.2971,210.2924 c 0.0000,-4.6457 -3.7660,-8.4117 -8.4117 -8.4117c -4.6457,-0.0000 -8.4117,3.7660 -8.4117 8.4117c -0.0000,4.6457 3.7660,8.4117 8.4117 8.4117c 4.6457,0.0000 8.4117,-3.7660 8.4117 -8.4117Z"/></g></svg>