<?xml version="1.0" encoding="UTF-8"?>
<!DOCTYPE svg PUBLIC "-//W3C//DTD SVG 1.1//EN"
    "http://www.w3.org/Graphics/SVG/1.1/DTD/svg11.dtd"><svg xmlns="http://www.w3.org/2000/svg" viewBox="0.0 0.0 400.0 692.8203230275507" height="692.8203" font-size="1" stroke-opacity="1" width="400.0000" xmlns:xlink="http://www.w3.org/1999/xlink" stroke="rgb(0,0,0)" version="1.1"><defs></defs><g stroke-linecap="butt" fill="rgb(0,0,0)" stroke-miterlimit="10.0" stroke-width="2.1057184207239876" fill-opacity="0.0" stroke-opacity="1.0" stroke-linejoin="miter" stroke="rgb(0,0,0)"><path d="M 200.0000,461.8802 l 0.0000,230.9401 l 200.0000,-115.4701 Z"/></g><g stroke-linecap="butt" fill="rgb(0,0,0)" stroke-miterlimit="10.0" stroke-width="2.1057184207239876" fill-opacity="0.0" stroke-opacity="1.0" stroke-linejoin="miter" stroke="rgb(0,0,0)"><path d="M 400.0000,577.3503 l -0.0000,-230.9401 l -200.0000,115.4701 Z"/></g><g stroke-linecap="butt" fill="rgb(0,0,0)" stroke-miterlimit="10.0" stroke-width="2.1057184207239876" fill-opacity="0.0" stroke-opacity="1.0" stroke-linejoin="miter" stroke="rgb(0,0,0)"><path d="M 400.0000,346.4102 l -0.0000,-230.9401 l -200.0000,115.4701 Z"/></g><g stroke-linecap="butt" fill="rgb(0,0,0)" stroke-miterlimit="10.0" stroke-width="2.1057184207239876" fill-opacity="0.0" stroke-opacity="1.0" stroke-linejoin="miter" stroke="rgb(0,0,0)"><path d="M 200.0000,230.9401 l 0.0000,230.9401 l 200.0000,-115.4701 Z"/></g><g stroke-linecap="butt" fill="rgb(255,0,0)" stroke-miterlimit="10.0" stroke-width="0.0" fill-opacity="1.0" stroke-opacity="1.0" stroke-linejoin="miter" stroke="rgb(0,0,0)"><path d="M 270.1308,352.4102 c 3.3137,-1.9132 4.4491,-6.1504 2.5359 -9.4641c -1.9132,-3.3137 -6.1504,-4.4491 -9.4641 -2.5359c -3.3137,1.9132 -4.4491,6.1504 -2.5359 9.4641c 1.9132,3.3137 6.1504,4.4491 9.4641 2.5359Z"/></g><g stroke-linecap="butt" fill="rgb(0,0,0)" stroke-miterlimit="10.0" stroke-width="2.1057184207239876" fill-opacity="0.0" stroke-opacity="1.0" stroke-linejoin="miter" stroke="rgb(0,0,0)"><path d="M 200.0000,230.9401 l -0.0000,-230.9401 l -200.0000,115.4701 Z"/></g><g stroke-linecap="butt" fill="rgb(0,0,0)" stroke-miterlimit="10.0" stroke-width="2.1057184207239876" fill-opacity="0.0" stroke-opacity="1.0" stroke-linejoin="miter" stroke="rgb(0,0,0)"><path d="M -0.0000,115.4701 l 0.0000,230.9401 l 200.0000,-115.4701 Z"/></g><g stroke-linecap="butt" fill="rgb(0,0,0)" stroke-miterlimit="10.0" stroke-width="2.1057184207239876" fill-opacity="0.0" stroke-opacity="1.0" stroke-linejoin="miter" stroke="rgb(0,0,0)"><path d="M -0.0000,346.4102 l 0.0000,230.9401 l 200.0000,-115.4701 Z"/></g><g stroke-linecap="butt" fill="rgb(0,0,0)" stroke-miterlimit="10.0" stroke-width="2.1057184207239876" fill-opacity="0.0" stroke-opacity="1.0" stroke-linejoin="miter" stroke="rgb(0,0,0)"><path d="M 200.0000,461.8802 l -0.0000,-230.9401 l -200.0000,115.4701 Z"/></g><g stroke-linecap="butt" fill="rgb(255,0,0)" stroke-miterlimit="10.0" stroke-width="0.0" fill-opacity="1.0" stroke-opacity="1.0" stroke-linejoin="miter" stroke="rgb(0,0,0)"><path d="M 129.8692,340.4102 c -3.3137,1.9132 -4.4491,6.1504 -2.5359 9.4641c 1.9132,3.3137 6.1504,4.4491 9.4641 2.5359c 3.3137,-1.9132 4.4491,-6.1504 2.5359 -9.4641c -1.9132,-3.3137 -6.1504,-4.4491 -9.4641 -2.5359Z"/></g><g stroke-linecap="butt" fill="rgb(255,0,0)" stroke-miterlimit="10.0" stroke-width="0.0" fill-opacity="1.0" stroke-opacity="1.0" stroke-linejoin="miter" stroke="rgb(0,0,0)"><path d="M 147.1897,346.4102 c 0.0000,-7.6527 -6.2037,-13.8564 -13.8564 -13.8564c -7.6527,-0.0000 -13.8564,6.2037 -13.8564 13.8564c -0.0000,7.6527 6.2037,13.8564 13.8564 13.8564c 7.6527,0.0000 13.8564,-6.2037 13.8564 -13.8564Z"/></g></svg>